<svg width="28" height="28" viewBox="0 0 28 28" fill="none" xmlns="http://www.w3.org/2000/svg">
<g id="image 26 (traced)">
<g id="Black">
<path id="Vector" d="M13.31 0.8139C12.9025 0.999701 12.7107 1.20948 12.0214 2.22839C11.6378 2.79778 11.2422 3.30724 11.0984 3.42711C10.7567 3.70282 10.2473 3.93057 9.78578 4.00849C9.38421 4.07442 9.43215 4.08042 7.91577 3.75676C7.50221 3.66686 7.22051 3.63689 7.01074 3.66686C6.24955 3.75676 5.65019 4.36211 5.52432 5.17125C5.49436 5.34507 5.5423 5.68071 5.69214 6.38196C5.81202 6.9094 5.90791 7.44283 5.90791 7.55671C5.90791 8.10812 5.65618 8.7794 5.27259 9.2529C5.15871 9.39075 4.64926 9.78633 4.07986 10.1699C3.53445 10.5355 3.013 10.9371 2.91111 11.057C2.50355 11.5544 2.43162 12.3096 2.7373 12.921C2.94108 13.3285 3.03098 13.4065 4.25967 14.2276C5.2606 14.8929 5.62022 15.3244 5.81202 16.0736C5.94987 16.5891 5.93189 16.7988 5.69214 17.9017C5.48836 18.8187 5.47637 18.9146 5.5423 19.2323C5.66817 19.8256 6.11769 20.3351 6.68109 20.5269C7.01673 20.6407 7.52619 20.6108 8.36529 20.419C9.50408 20.1613 10.0015 20.1912 10.6908 20.5688C11.1283 20.8026 11.3981 21.1142 12.1233 22.1871C12.8425 23.248 13.0343 23.4158 13.6576 23.5476C13.9214 23.6016 14.0772 23.6016 14.3409 23.5476C14.9523 23.4218 15.1501 23.242 15.8094 22.265C16.5166 21.2041 16.9541 20.7486 17.4995 20.4789C18.0809 20.1912 18.5304 20.1732 19.5793 20.413C20.0288 20.5149 20.5563 20.5988 20.7541 20.5988C21.4613 20.5988 22.0127 20.2691 22.3064 19.6638C22.5282 19.2143 22.5222 18.7588 22.2765 17.7398C22.0667 16.8528 22.0487 16.5831 22.1865 16.0736C22.3903 15.2765 22.72 14.9109 23.9966 14.0538C24.7758 13.5263 25.0155 13.3345 25.1534 13.1128C25.5729 12.4535 25.543 11.6144 25.0815 11.051C24.9796 10.9251 24.4521 10.5295 23.9127 10.1639C23.3373 9.78033 22.8458 9.40274 22.726 9.2529C22.3424 8.7794 22.0907 8.10812 22.0907 7.55671C22.0907 7.44283 22.1746 6.98132 22.2765 6.52581C22.3783 6.07629 22.4682 5.54285 22.4682 5.34507C22.4742 4.70974 22.1206 4.14035 21.5452 3.84666C21.1497 3.64288 20.7661 3.60692 20.2326 3.72679C18.6323 4.07442 18.6144 4.07442 18.2188 4.00849C17.7513 3.93057 17.2418 3.70282 16.9002 3.42711C16.7563 3.30724 16.3608 2.79778 15.9772 2.22839C15.0661 0.885822 14.8324 0.700022 13.9993 0.700022C13.6936 0.700022 13.4718 0.735983 13.31 0.8139ZM18.7162 9.58255C19.0159 9.85825 19.0219 9.85226 16.4387 12.4295C14.5747 14.2935 13.9933 14.8449 13.8794 14.8449C13.7655 14.8449 13.31 14.4194 11.9195 13.0349C10.4091 11.5305 10.1034 11.1948 10.1034 11.057C10.1034 10.8352 10.2952 10.6494 10.535 10.6494C10.7028 10.6494 10.9006 10.8292 12.3031 12.2197L13.8794 13.7901L16.0551 11.6204C18.4046 9.27088 18.3986 9.28286 18.7162 9.58255Z" fill="white"/>
<path id="Vector_2" d="M17.9295 21.2222C17.5819 21.354 17.2942 21.6118 16.9646 22.0913L16.6649 22.5288L16.6469 24.9262C16.6349 26.6344 16.6469 27.3177 16.6949 27.2997C16.7308 27.2877 17.1564 26.7543 17.6418 26.113C18.1273 25.4717 18.5708 24.9382 18.6308 24.9262C18.9065 24.8723 19.0324 24.9862 19.8715 26.113C20.339 26.7363 20.7345 27.2518 20.7465 27.2518C20.7585 27.2518 20.7705 25.9631 20.7705 24.3808V21.5159L20.3989 21.4739C20.1891 21.4559 19.8175 21.384 19.5718 21.3181C18.9544 21.1503 18.2292 21.1083 17.9295 21.2222Z" fill="white"/>
</g>
</g>
</svg>
