<svg width="28" height="28" viewBox="0 0 28 28" fill="none" xmlns="http://www.w3.org/2000/svg">
<g id="image 23 (traced)">
<g id="Black">
<path id="Vector" d="M22.908 1.85397C22.5525 1.96882 22.2681 2.13835 21.9728 2.40085C21.7431 2.60319 21.7705 2.67975 22.0713 2.67975C22.3283 2.67975 22.8533 2.83288 23.2689 3.02429C23.9908 3.35241 24.5705 3.90475 24.9205 4.59928C25.1228 4.9985 25.3252 5.67116 25.3252 5.93366C25.3252 6.23444 25.4017 6.26178 25.6095 6.02663C26.0525 5.53991 26.2549 4.99303 26.2549 4.29303C26.2549 3.37428 25.8447 2.60866 25.1009 2.12741C24.5158 1.75554 23.5916 1.63522 22.908 1.85397Z" fill="white"/>
<path id="Vector_2" d="M17.3988 6.96172L13.877 10.4891L14.0902 10.5273C14.6645 10.6203 15.0855 10.7352 15.3973 10.8828C15.5887 10.9703 15.7637 11.0469 15.7855 11.0469C15.8129 11.0469 17.459 9.42266 19.4441 7.4375C22.873 4.00312 23.048 3.81719 22.9441 3.74062C22.7254 3.57656 22.2879 3.48359 21.6043 3.46172L20.9207 3.43984L17.3988 6.96172Z" fill="white"/>
<path id="Vector_3" d="M20.0637 7.91328L16.416 11.5664L16.5527 11.7305C16.9902 12.2391 17.3293 12.9719 17.4223 13.5898C17.4441 13.7102 17.4715 13.8797 17.4879 13.9672C17.5152 14.1148 17.6848 13.9562 21.0371 10.6039L24.559 7.08203V6.52968C24.559 5.92265 24.4223 5.26093 24.2254 4.92734C24.0887 4.69218 23.777 4.27109 23.7387 4.26562C23.7223 4.26562 22.0707 5.90624 20.0637 7.91328Z" fill="white"/>
<path id="Vector_4" d="M13.331 11.3585C13.2708 11.4734 12.2427 15.7062 12.2701 15.7335C12.2919 15.75 13.2818 15.5203 14.4794 15.2195L16.656 14.6781L16.6724 14.2953C16.738 12.8843 15.8029 11.6593 14.4521 11.3804C14.124 11.3148 13.3638 11.2984 13.331 11.3585Z" fill="white"/>
<path id="Vector_5" d="M3.54688 16.7289C2.75391 16.9859 2.07578 17.6805 1.84063 18.4789C1.70937 18.9219 1.70937 23.9531 1.84063 24.3961C2.07578 25.2055 2.75938 25.8945 3.56328 26.1461C3.86953 26.2445 4.09922 26.25 6.58203 26.25C9.26172 26.25 9.27266 26.2445 9.63359 26.1187C10.1203 25.9492 10.4102 25.7359 10.8805 25.2164C11.3945 24.6477 11.6242 24.5328 12.2531 24.5328C12.882 24.5328 13.1117 24.6477 13.6258 25.2164C14.0961 25.7359 14.3859 25.9492 14.8727 26.1187C15.2336 26.2445 15.25 26.25 17.9188 26.25C20.2102 26.25 20.6422 26.2391 20.8992 26.1625C21.7086 25.9273 22.3977 25.2437 22.6492 24.4398C22.7477 24.1336 22.7531 23.9039 22.7531 21.4375C22.7531 18.9711 22.7477 18.7414 22.6492 18.4352C22.3977 17.6312 21.7086 16.9477 20.8992 16.7125C20.6313 16.6359 19.7125 16.625 12.2313 16.6305C4.26328 16.6305 3.84219 16.6359 3.54688 16.7289ZM19.0617 18.4297C19.5813 18.5062 19.9641 18.6977 20.325 19.0531C20.7023 19.4359 20.8992 19.8516 20.9375 20.3437C20.9594 20.6664 20.9484 20.7266 20.8445 20.8305C20.7023 20.9727 20.4344 20.9781 20.2977 20.8414C20.2375 20.7812 20.1719 20.6391 20.1555 20.5242C20.0898 20.0977 20.0078 19.8953 19.8109 19.6766C19.4992 19.332 19.275 19.25 18.5805 19.25C17.7219 19.25 17.4703 19.1078 17.5797 18.6703C17.6508 18.3969 18.1977 18.3094 19.0617 18.4297ZM20.8391 22.0391C20.8992 22.0992 20.9484 22.2195 20.9484 22.3125C20.9484 22.4055 20.8992 22.5258 20.8391 22.5859C20.6039 22.8211 20.1828 22.6461 20.1828 22.3125C20.1828 22.1047 20.3578 21.9297 20.5656 21.9297C20.6586 21.9297 20.7789 21.9789 20.8391 22.0391Z" fill="white"/>
</g>
</g>
</svg>
