<svg width="61" height="60" viewBox="0 0 61 60" fill="none" xmlns="http://www.w3.org/2000/svg">
<path d="M38.1954 0.234337C38.3256 0.468712 41.711 5.75517 41.7761 5.8333C41.8282 5.87236 45.5001 0.195274 45.5001 0.0780869C45.5001 0.0260034 43.8334 -3.8147e-05 41.7891 -3.8147e-05C38.2735 -3.8147e-05 38.0782 0.0129828 38.1954 0.234337Z" fill="#2276F6"/>
<path d="M48.4559 0.377557C48.5861 0.57287 49.4194 1.90099 50.3179 3.29422C51.5549 5.24735 51.9845 5.80724 52.0887 5.69006C52.284 5.49474 55.5262 0.403599 55.6174 0.169224C55.6694 0.0259948 54.9924 -4.673e-05 51.9455 -4.673e-05H48.2085L48.4559 0.377557Z" fill="#2276F6"/>
<path d="M35.9688 1.70581C34.0938 4.62248 33 6.35425 33 6.43237C33 6.47144 34.6797 6.5105 36.724 6.5105C39.8229 6.5105 40.4349 6.48446 40.3828 6.32821C40.2786 6.06779 37.0365 1.01571 36.8411 0.794352C36.6979 0.651123 36.5547 0.794352 35.9688 1.70581Z" fill="#2276F6"/>
<path d="M44.9922 3.51571C43.9766 5.09123 43.1562 6.41935 43.1562 6.44539C43.1562 6.48446 44.8359 6.5105 46.8802 6.5105C49.849 6.5105 50.5911 6.47144 50.5521 6.34123C50.487 6.09383 47.0104 0.664144 46.9062 0.651123C46.8672 0.651123 46.0078 1.94019 44.9922 3.51571Z" fill="#2276F6"/>
<path d="M55.1615 3.54167L53.2996 6.44531L55.2006 6.48438C56.2423 6.4974 57.935 6.4974 58.9766 6.48438L60.8647 6.44531L59.0157 3.54167C57.9871 1.95312 57.1277 0.651042 57.0886 0.651042C57.0365 0.651042 56.1772 1.95312 55.1615 3.54167Z" fill="#2276F6"/>
<path d="M34.5106 9.14056C35.1616 9.80462 37.8179 12.539 40.422 15.2083C43.0132 17.8775 45.1616 20.039 45.1877 20.013C45.2137 19.9999 44.784 18.6327 44.2502 16.9921C43.7163 15.3385 42.8309 12.6301 42.297 10.9635L41.3205 7.94264H37.3231H33.3257L34.5106 9.14056Z" fill="#2276F6"/>
<path d="M43.7292 10.8332C44.2501 12.4348 45.1615 15.2473 45.7605 17.0962C46.3595 18.9322 46.8933 20.4035 46.9454 20.3514C47.0105 20.2733 50.435 9.77853 50.9037 8.22905L50.9819 7.94259H46.8933H42.7917L43.7292 10.8332Z" fill="#2276F6"/>
<path d="M50.5262 13.9452C49.4715 17.2395 48.6252 19.9608 48.6512 19.9869C48.7033 20.039 60.3439 8.12491 60.3439 8.00772C60.3439 7.96866 58.5731 7.94262 56.4116 7.94262H52.4663L50.5262 13.9452Z" fill="#2276F6"/>
<path d="M14.4375 30.3984C14.3438 30.6211 14.1562 31.125 14.0156 31.5L13.7578 32.1914L13.043 32.3906C12.6445 32.5078 11.8828 32.8008 11.3555 33.0586L10.3945 33.5391L9.30469 33.0469L8.22656 32.5664L6.91406 33.8906L5.60156 35.2148L6.08203 36.293L6.55078 37.3828L6.07031 38.4023C5.8125 38.9766 5.50781 39.7266 5.39062 40.0898L5.20312 40.7344L4.125 41.1445L3.05859 41.5547L3.02344 43.4414L3 45.3281L4.08984 45.75L5.17969 46.1719L5.39062 46.8516C5.50781 47.2148 5.8125 47.9766 6.08203 48.5508L6.55078 49.5703L6.08203 50.6133L5.60156 51.6562L6.9375 52.9805L8.26172 54.3047L9.35156 53.8359L10.4531 53.3672L11.1445 53.7422C11.5312 53.9531 12.2695 54.2695 12.7969 54.4453L13.7578 54.75L14.168 55.8281L14.5781 56.8945H16.4766H18.375L18.7852 55.8164L19.1953 54.7383L20.0039 54.4922C20.4492 54.3633 21.1992 54.0469 21.668 53.8125L22.5352 53.3672L23.6133 53.8359L24.6914 54.3047L25.9688 53.0273C26.6836 52.3125 27.2578 51.6797 27.2578 51.6094C27.2578 51.5273 27.0703 51.0352 26.8359 50.5195L26.4023 49.5703L26.8828 48.5391C27.1406 47.9766 27.4453 47.2266 27.5508 46.8516L27.7383 46.1953L28.8516 45.7617L29.9531 45.3281L29.9297 43.4414L29.8945 41.5547L28.8281 41.1445L27.75 40.7344L27.5625 40.0898C27.4453 39.7266 27.1406 38.9766 26.8828 38.4023L26.4023 37.3828L26.8242 36.3984C27.0586 35.8477 27.2578 35.332 27.2578 35.25C27.2578 35.168 26.6836 34.5234 25.9922 33.832L24.7266 32.5664L23.6367 33.0469L22.5586 33.5391L21.5977 33.0586C21.0703 32.8008 20.3086 32.5078 19.9219 32.3906L19.1953 32.1914L18.7969 31.125L18.3867 30.0586L16.5 30.0234L14.6016 30L14.4375 30.3984ZM17.707 37.3242C19.3594 37.6758 20.8477 38.6953 21.7734 40.125C23.332 42.5273 22.9453 45.7969 20.8711 47.8711C19.6523 49.0898 18.1992 49.6875 16.4766 49.6875C14.7539 49.6875 13.3008 49.0898 12.082 47.8711C9.99609 45.7852 9.63281 42.5273 11.2031 40.0781C12.0469 38.7539 13.6289 37.6641 15.1875 37.3359C16.1836 37.1133 16.7109 37.1133 17.707 37.3242Z" fill="#2276F6"/>
<path d="M38.0652 43.643C40.6144 39.9919 40.5284 40.0349 41.1737 42.0215L41.5287 43.106L42.4968 42.7517C44.562 42.0107 46.3152 41.1409 48.4772 39.8201C53.9736 36.4483 57.8782 32.0993 60.0079 26.9664C60.3736 26.0752 60.4274 26 60.707 26C60.9975 26 61.0082 26.0107 60.9975 26.5477C60.9652 27.6752 60.3736 30.0591 59.696 31.7879C57.3188 37.855 52.5216 43.0523 46.6487 45.9624C45.7882 46.3812 44.6157 46.8859 44.0457 47.0899L43.0131 47.4443L43.3895 48.5503C43.7875 49.7101 43.7983 50 43.4218 50C43.1206 50 36.4303 47.4336 36.1829 47.2295C36.0861 47.1436 36 46.9611 36 46.843C36 46.7141 36.9358 45.2752 38.0652 43.643Z" fill="#2276F6"/>
<path d="M22.9348 8.35705C20.3856 12.0081 20.4716 11.9651 19.8263 9.97852L19.4713 8.89396L18.5032 9.24832C16.438 9.98926 14.6848 10.8591 12.5228 12.1799C7.02636 15.5517 3.12185 19.9007 0.992118 25.0336C0.626406 25.9248 0.572625 26 0.292964 26C0.00254571 26 -0.0082105 25.9893 0.00254574 25.4523C0.0348144 24.3248 0.626407 21.9409 1.30405 20.2121C3.68117 14.145 8.47845 8.94765 14.3513 6.03758C15.2118 5.61879 16.3843 5.11409 16.9543 4.91007L17.9869 4.5557L17.6105 3.44966C17.2125 2.28993 17.2017 2 17.5782 2C17.8794 2 24.5697 4.56644 24.8171 4.77047C24.9139 4.85638 25 5.03893 25 5.15705C25 5.28591 24.0642 6.72483 22.9348 8.35705Z" fill="#2276F6"/>
</svg>
