<svg width="25" height="25" viewBox="0 0 25 25" fill="none" xmlns="http://www.w3.org/2000/svg">
<g id="image 43 (traced)">
<g id="Black">
<path id="Vector" d="M11.3299 0.790041C9.08463 0.933554 6.96435 1.76222 5.14961 3.19734C4.67741 3.5677 3.79319 4.45192 3.41358 4.92875C2.33955 6.28517 1.54792 7.97491 1.2146 9.60447C0.992388 10.697 0.936835 12.2294 1.07572 13.308C1.56181 17.0254 3.858 20.2429 7.18656 21.8724C8.69575 22.6085 10.0614 22.9465 11.7465 22.9928C12.7234 23.0205 13.4363 22.9696 14.2372 22.8169C19.0147 21.9095 22.6859 17.905 23.1859 13.0627C23.2646 12.2895 23.2183 10.7202 23.0933 10.0211C22.459 6.46109 20.2739 3.51677 17.0889 1.92888C15.7232 1.24372 14.3853 0.887259 12.8113 0.785412C12.0799 0.739117 12.103 0.739117 11.3299 0.790041ZM13.2233 3.7251C15.1075 3.9936 16.8065 4.8732 18.1027 6.24351C21.1674 9.50262 21.0934 14.5441 17.9268 17.706C16.0612 19.5763 13.3668 20.4512 10.7975 20.0207C6.69121 19.3355 3.71912 15.7014 3.89041 11.572C3.91819 10.9007 3.98763 10.4192 4.13114 9.85909C4.96907 6.63238 7.66802 4.21119 10.9734 3.72973C11.5521 3.64177 12.6354 3.64177 13.2233 3.7251Z" fill="#E6EAEB"/>
<path id="Vector_2" d="M10.9858 3.05625C9.95206 3.16983 8.95419 3.46872 7.98621 3.94694C3.97086 5.9495 2.04684 10.5703 3.46296 14.8444C4.61021 18.3175 7.72927 20.7385 11.3562 20.9776C14.0272 21.157 16.4591 20.2543 18.3413 18.3893C20.7732 15.9862 21.6157 12.4414 20.5402 9.18946C19.1957 5.12457 15.2401 2.58401 10.9858 3.05625ZM12.3601 5.1963C12.4736 5.25608 12.623 5.39954 12.6887 5.50714C12.8022 5.69843 12.8082 5.83592 12.8261 8.44223L12.8441 11.1801H15.5449C18.6341 11.1801 18.5504 11.1681 18.8014 11.6702C18.9209 11.9093 18.9328 11.9751 18.8731 12.1843C18.7834 12.531 18.4847 12.7761 18.0843 12.8239C17.9111 12.8419 16.4172 12.8538 14.7681 12.8419C11.8522 12.8239 11.7685 12.818 11.6072 12.6984C11.5176 12.6327 11.3861 12.5011 11.3204 12.4115C11.1949 12.2501 11.1949 12.1724 11.177 9.04001L11.165 5.82994L11.2965 5.56692C11.5235 5.12457 11.9538 4.97512 12.3601 5.1963Z" fill="#E6EAEB"/>
</g>
</g>
</svg>
