<svg width="25" height="25" viewBox="0 0 25 25" fill="none" xmlns="http://www.w3.org/2000/svg">
<path d="M14.9104 0.0558243C12.3733 0.360765 10.5985 1.87327 9.99473 4.24571C9.79347 5.03856 9.72638 5.8802 9.72638 7.56957V9.02109H8.01871H6.30494L6.15247 9.17356L6 9.32603L6.0183 11.6131C6.03659 13.7111 6.04269 13.9062 6.14637 14.0038C6.24395 14.1014 6.42082 14.1136 7.98822 14.1319L9.72638 14.1502L9.73858 19.4257L9.75687 24.7073L9.92764 24.8536L10.0984 25H12.3794C13.9529 25 14.7091 24.9756 14.8128 24.9329C14.8982 24.8902 14.9958 24.7804 15.0324 24.6768C15.075 24.5548 15.0933 22.7739 15.0933 19.322V14.1502L17.0633 14.1319C18.1428 14.1197 19.0759 14.0892 19.1369 14.0587C19.3747 13.9428 19.393 13.8026 19.4113 11.8875C19.4357 9.68586 19.4113 9.30774 19.21 9.10647L19.0637 8.9601H17.0755H15.0872L15.1055 7.29512C15.1238 5.66674 15.1238 5.63015 15.2702 5.39839C15.3678 5.24592 15.5142 5.11785 15.6971 5.03856C15.9533 4.92268 16.124 4.91049 17.5634 4.88609C19.332 4.86169 19.3747 4.8495 19.4784 4.46527C19.5638 4.15423 19.5638 0.708399 19.4784 0.403458C19.3686 0.0070343 19.2771 -0.00516319 17.1547 0.000934601C16.1362 0.0070343 15.1299 0.0314293 14.9104 0.0558243Z" fill="url(#paint0_linear_91_2027)"/>
<defs>
<linearGradient id="paint0_linear_91_2027" x1="12.7712" y1="25" x2="12.7712" y2="0" gradientUnits="userSpaceOnUse">
<stop stop-color="#2276F6"/>
<stop offset="1" stop-color="#5A97F3"/>
</linearGradient>
</defs>
</svg>
