<svg width="24" height="24" viewBox="0 0 24 24" fill="none" xmlns="http://www.w3.org/2000/svg">
<g id="Facebook">
<path id="Shape" d="M22 12C22 6.47716 17.5228 1.99999 12 1.99999C6.47716 1.99999 2 6.47716 2 12C2 16.6898 5.2286 20.6249 9.58424 21.7055V15.0558H7.52216V12H9.58424V10.6832C9.58424 7.27956 11.1246 5.70196 14.4662 5.70196C15.0997 5.70196 16.1928 5.82616 16.64 5.9504V8.72056C16.404 8.69572 15.9941 8.68328 15.4848 8.68328C13.845 8.68328 13.2115 9.3044 13.2115 10.9193V12H16.4778L15.9167 15.0558H13.2115V21.9268C18.1629 21.3287 22 17.1127 22 12Z" fill="#0866FF"/>
<path id="Shape_2" d="M15.917 15.0558L16.4782 12H13.2118V10.9192C13.2118 9.30436 13.8453 8.68328 15.4851 8.68328C15.9944 8.68328 16.4043 8.69568 16.6403 8.72052V5.9504C16.1931 5.82616 15.1 5.70192 14.4665 5.70192C11.1249 5.70192 9.58454 7.27956 9.58454 10.6832V12H7.52246V15.0558H9.58454V21.7055C10.3583 21.8974 11.1673 22 12.0003 22C12.4105 22 12.8146 21.9747 13.2118 21.9268V15.0558H15.917Z" fill="white"/>
</g>
</svg>
