<svg width="22" height="23" viewBox="0 0 22 23" fill="none" xmlns="http://www.w3.org/2000/svg">
<g id="Calling 1">
<g id="Vector">
<path d="M11.9901 2.25C12.8509 2.25 13.2319 2.25076 13.5461 2.27889C17.0394 2.59165 19.808 5.36017 20.1207 8.85348C20.1489 9.16768 20.1496 9.54868 20.1496 10.4095V11.3995C20.1496 11.8137 20.4854 12.1495 20.8996 12.1495C21.3138 12.1495 21.6496 11.8137 21.6496 11.3995V10.3591C21.6496 9.56221 21.6496 9.10934 21.6147 8.71971C21.2373 4.50365 17.896 1.16234 13.6799 0.784863C13.2902 0.749977 12.8374 0.749985 12.0404 0.750001H11.0001C10.5859 0.750001 10.2501 1.08579 10.2501 1.5C10.2501 1.91422 10.5859 2.25 11.0001 2.25L11.9901 2.25Z" fill="#2276F6"/>
<path d="M6.11183 3.5253C5.05974 2.55857 3.44259 2.55857 2.3905 3.5253C2.34742 3.56489 2.30142 3.61089 2.2417 3.67063L1.34419 4.56813C0.441081 5.47125 0.0619618 6.77317 0.339024 8.01995C1.91099 15.0938 7.43553 20.6183 14.5094 22.1903C15.7562 22.4674 17.0581 22.0883 17.9612 21.1851L18.8586 20.2877C18.9184 20.228 18.9644 20.1819 19.004 20.1388C19.9708 19.0867 19.9708 17.4696 19.004 16.4175C18.9644 16.3744 18.9184 16.3284 18.8586 16.2686L17.3894 14.7993C16.3693 13.7792 14.8287 13.4875 13.5063 14.064C12.7492 14.394 11.8672 14.2269 11.2832 13.6429L8.88639 11.2461C8.30239 10.6621 8.13536 9.78019 8.46538 9.02308C9.04184 7.70062 8.75009 6.16009 7.72999 5.13999L6.26066 3.67065C6.20092 3.6109 6.15492 3.56489 6.11183 3.5253Z" fill="#2276F6"/>
<path d="M11.7071 4.28554C11.2929 4.28554 10.9571 4.62132 10.9571 5.03553C10.9571 5.44975 11.2929 5.78553 11.7071 5.78553H12.2728C12.36 5.78553 12.3957 5.78555 12.4248 5.78597C14.7244 5.8189 16.5806 7.6751 16.6135 9.97467C16.6139 10.0037 16.614 10.0395 16.614 10.1267V10.6924C16.614 11.1066 16.9497 11.4424 17.364 11.4424C17.7782 11.4424 18.114 11.1066 18.114 10.6924V10.1194C18.114 10.0417 18.114 9.99444 18.1134 9.95319C18.0688 6.842 15.5575 4.33068 12.4463 4.28612C12.405 4.28553 12.3577 4.28553 12.28 4.28554H11.7071Z" fill="#2276F6"/>
</g>
</g>
</svg>
