<svg width="25" height="25" viewBox="0 0 25 25" fill="none" xmlns="http://www.w3.org/2000/svg">
<g id="image 38 (traced)">
<g id="Black">
<path id="Vector" d="M11.8164 1.30366C10.4443 1.44038 9.28223 1.77729 8.20312 2.35347C5.24902 3.92573 3.36914 7.04585 3.36914 10.3759C3.36914 12.6904 4.58496 15.9277 6.56738 18.8964C7.31445 20.0146 7.85645 20.6933 8.64258 21.5039C9.88281 22.7783 10.918 23.4472 11.9727 23.6621C12.8711 23.8427 13.8135 23.5595 14.9414 22.7636C15.4932 22.373 16.8018 21.0937 17.3535 20.3955C19.5264 17.6611 21.2109 14.0673 21.5576 11.4453C22.0801 7.44136 19.7119 3.46186 15.8936 1.92866C14.6582 1.43061 13.0225 1.18159 11.8164 1.30366ZM13.6719 6.73335C14.9902 7.17768 15.9277 8.18354 16.2646 9.52143C16.416 10.1123 16.3818 11.0351 16.1914 11.5966C15.5908 13.3642 13.833 14.5019 12.0703 14.2675C10.5176 14.0625 9.30176 13.0615 8.80859 11.5966C8.62305 11.0302 8.58887 10.1074 8.73535 9.52143C8.93066 8.74995 9.29688 8.12495 9.88281 7.58296C10.6543 6.8603 11.5381 6.52827 12.6221 6.56245C13.125 6.5771 13.2764 6.60151 13.6719 6.73335Z" fill="#E6EAEB"/>
</g>
</g>
</svg>
