<svg width="20" height="24" viewBox="0 0 20 24" fill="none" xmlns="http://www.w3.org/2000/svg">
<path d="M9.01563 0.0328121C7.14063 0.220312 5.22813 1.04062 3.80782 2.25937C2.44845 3.42656 1.48751 4.8375 0.920321 6.49219C0.568759 7.53281 0.418759 8.46094 0.423446 9.60937C0.423446 11.1328 0.685946 12.2672 1.39376 13.8422C2.67345 16.6969 4.74532 19.4859 7.5297 22.1203C8.42501 22.9687 9.50313 23.8969 9.65313 23.9578C9.83595 24.0234 10.225 24.0094 10.3891 23.925C10.5813 23.8219 11.3781 23.1375 12.3672 22.2141C14.7156 20.025 16.6844 17.5359 17.9781 15.1266C19.15 12.9375 19.5672 11.4844 19.5766 9.5625C19.5859 6.95625 18.6203 4.62656 16.75 2.76562C15.2453 1.26562 13.2813 0.309376 11.1719 0.046875C10.8063 0.00468826 9.40001 -0.00937462 9.01563 0.0328121ZM10.7547 5.13281C13.6844 5.64375 15.3859 8.69531 14.2703 11.4328C13.7406 12.7312 12.5453 13.7766 11.1438 14.1656C10.8344 14.25 10.6469 14.2687 10 14.2687C9.3297 14.2734 9.17501 14.2594 8.85157 14.1656C7.49688 13.7719 6.43751 12.9047 5.85157 11.6953C5.01251 9.975 5.32188 7.92656 6.62032 6.54844C7.71251 5.39531 9.24532 4.86563 10.7547 5.13281Z" fill="#2276F6"/>
</svg>
