<svg width="25" height="25" viewBox="0 0 25 25" fill="none" xmlns="http://www.w3.org/2000/svg">
<g id="image 40 (traced)">
<g id="Black">
<path id="Vector" d="M5.05117 4.3838C4.61135 4.47839 4.07696 4.70066 3.71281 4.94657C3.37704 5.16884 2.80482 5.74107 2.65348 6.00117L2.56836 6.14305L7.39683 9.49129C10.0499 11.3262 12.301 12.8679 12.3955 12.9057C12.6225 13.0051 13.1333 13.0051 13.365 12.9057C13.4643 12.8632 15.7154 11.3262 18.3637 9.49129L23.1875 6.15251L23.1071 6.00117C22.9557 5.73161 22.2322 5.04589 21.887 4.84253C21.7072 4.73376 21.3526 4.5777 21.1066 4.49257L20.6574 4.33651L12.9961 4.32705C6.80095 4.32232 5.27816 4.33178 5.05117 4.3838Z" fill="#E6EAEB"/>
<path id="Vector_2" d="M2.02838 7.79352C2.01419 7.91647 2 10.3614 2 13.2273C2 18.959 1.99528 18.9023 2.28848 19.6259C2.65263 20.5386 3.43767 21.3378 4.34094 21.7114C5.0645 22.0141 4.65306 21.9999 12.8771 21.9999C19.5121 21.9999 20.3917 21.9904 20.718 21.9242C22.1226 21.6358 23.2481 20.5622 23.6264 19.1482L23.7305 18.7604V13.1942C23.7305 10.1344 23.7163 7.61854 23.7021 7.59962C23.6832 7.58543 21.6827 8.94743 19.2567 10.631C16.8259 12.3146 14.6694 13.8043 14.4566 13.9414C14.2485 14.0786 13.908 14.2488 13.6999 14.3197C12.9622 14.5657 12.092 14.4522 11.4252 14.0265C11.2833 13.9367 9.1694 12.4801 6.73389 10.7965C4.29837 9.11295 2.25065 7.69893 2.18444 7.65164L2.06148 7.57597L2.02838 7.79352Z" fill="#E6EAEB"/>
</g>
</g>
</svg>
