<svg width="58" height="27" viewBox="0 0 58 27" fill="none" xmlns="http://www.w3.org/2000/svg">
<g id="VB12_logo-03 1" clip-path="url(#clip0_1_7304)">
<path id="Vector" d="M28.2247 0L23.9199 4.06583H28.4407V21.6903L32.5006 17.8403V0H28.2247Z" fill="#090911"/>
<path id="Vector_2" d="M40.2487 21.9801L44.5246 17.9276C46.1674 16.3783 47.3416 14.9761 48.1049 13.7644C48.2422 13.543 48.3596 13.3151 48.4771 13.0904C48.9656 12.1221 49.2104 11.1748 49.2104 10.2552C49.2099 9.66551 49.1267 9.07883 48.9634 8.5122C48.631 7.38895 47.9564 6.38191 46.9583 5.50212C45.5105 4.21177 43.6705 3.55774 41.4993 3.55774C39.7479 3.55774 38.1628 4.017 36.7637 4.95544C35.3236 5.90273 34.269 7.19308 33.5645 8.8287L37.312 10.6071C37.6931 9.61996 38.2414 8.83645 38.9847 8.27206C39.7012 7.70789 40.5892 7.40528 41.5015 7.41441C42.4797 7.41441 43.2917 7.69771 43.9663 8.28423C44.6808 8.87076 45.0231 9.56463 45.0231 10.3758C45.0201 10.53 45.0038 10.6837 44.9743 10.8351C44.837 11.6462 44.3285 12.5847 43.4678 13.6305C43.0184 14.1745 42.5376 14.6918 42.0277 15.1798L33.9976 22.8212V25.8512H46.1674L50.1985 22.01V21.9801H40.2487Z" fill="#090911"/>
<path id="Vector_3" d="M0 12.1389L6.84815 25.8514L13.7063 12.1389H0Z" fill="#090911"/>
<path id="Vector_4" d="M24.5753 18.6383C25.4615 17.9145 25.9046 16.986 25.9046 15.8816C25.9154 15.374 25.8114 14.8704 25.6005 14.4085C25.3895 13.9465 25.0769 13.538 24.6861 13.2135C23.8841 12.4908 22.876 12.1389 21.663 12.1389H15.0176V25.8514H22.0607C23.3324 25.8514 24.3792 25.4796 25.2211 24.737C26.0719 23.9623 26.4928 23.0361 26.4928 21.9316C26.4928 20.5151 25.857 19.4107 24.5753 18.6383Z" fill="#090911"/>
<path id="Vector_5" d="M54.377 26.999C56.0802 26.999 57.461 25.6196 57.461 23.9181C57.461 22.2165 56.0802 20.8372 54.377 20.8372C52.6737 20.8372 51.293 22.2165 51.293 23.9181C51.293 25.6196 52.6737 26.999 54.377 26.999Z" fill="#2365FA"/>
</g>
<defs>
<clipPath id="clip0_1_7304">
<rect width="57.4615" height="27" fill="white"/>
</clipPath>
</defs>
</svg>
