<svg width="28" height="29" viewBox="0 0 28 29" fill="none" xmlns="http://www.w3.org/2000/svg">
<g id="image 22 (traced)">
<g id="Black">
<path id="Vector" d="M11.7359 2.56236C11.2219 2.71548 10.8445 3.05454 10.6148 3.56314C10.5055 3.79829 10.5 3.91314 10.5 6.55454C10.5 9.20689 10.5055 9.31079 10.6148 9.60611C10.768 10.0108 11.1617 10.4045 11.5664 10.5577C11.8016 10.6452 11.9984 10.6725 12.4305 10.6725C13.0867 10.6725 13.3547 10.7327 13.4969 10.9186C13.557 10.9952 13.6719 11.3233 13.7539 11.6569C13.918 12.3295 14.0438 12.5538 14.3281 12.7014C14.5523 12.8217 14.9297 12.8381 15.1375 12.7288C15.2195 12.685 15.8211 12.2202 16.4828 11.6952C17.3852 10.9733 17.7242 10.7327 17.8773 10.7053C17.9867 10.6889 19.2117 10.6725 20.6008 10.6725C23.0289 10.6725 23.1383 10.667 23.4336 10.5577C23.8383 10.4045 24.232 10.0108 24.3852 9.60611C24.4945 9.31079 24.5 9.20689 24.5 6.60923C24.5 5.01782 24.4781 3.84204 24.4453 3.7272C24.3578 3.41548 24.0898 3.03814 23.8055 2.83032C23.2859 2.45298 23.5375 2.46939 17.4672 2.47486C12.7422 2.47486 11.9656 2.48579 11.7359 2.56236ZM20.0703 6.10611C20.2781 6.21548 20.4148 6.47798 20.3711 6.68032C20.3273 6.88814 20.1086 7.09595 19.9008 7.1397C19.6766 7.18345 15.3234 7.18345 15.0992 7.1397C14.7383 7.06314 14.5195 6.66392 14.6781 6.35767C14.8531 6.02407 14.8312 6.02954 17.4891 6.02407C19.5508 6.02407 19.9336 6.03501 20.0703 6.10611Z" fill="white"/>
<path id="Vector_2" d="M6.15234 10.7272C4.87266 10.9842 3.65312 12.0069 3.17188 13.2374C2.8 14.1835 2.81094 15.3592 3.18828 16.3053C3.40156 16.8303 3.65859 17.2186 4.08516 17.6507L4.48438 18.0553L4.24922 18.1702C3.38516 18.6132 2.58125 19.4553 2.16016 20.3686C1.84844 21.0413 1.75 21.5608 1.75 22.5397C1.75 23.8303 1.90313 24.2788 2.59766 24.9788C2.98594 25.3725 3.22109 25.5202 3.77344 25.728C4.06328 25.8428 4.18906 25.8483 6.78125 25.8647C8.59687 25.8757 9.60313 25.8592 9.84375 25.821C10.4234 25.7225 11.025 25.3999 11.4352 24.9624C12.1023 24.2514 12.25 23.8085 12.25 22.5397C12.25 21.8835 12.2227 21.5882 12.1406 21.2382C12.0203 20.7296 11.7523 20.1116 11.4789 19.7124C11.0797 19.1272 10.3414 18.471 9.75078 18.1702L9.51562 18.0553L9.91484 17.6507C10.6969 16.8522 11.0961 15.8897 11.1016 14.785C11.1016 13.5928 10.6641 12.5702 9.79453 11.7553C9.0125 11.0171 8.09375 10.6671 6.97813 10.678C6.64453 10.6835 6.27266 10.7053 6.15234 10.7272Z" fill="white"/>
<path id="Vector_3" d="M14.4922 15.4412C14.0875 15.5998 13.6719 16.0155 13.5187 16.4311C13.4039 16.7373 13.3984 16.8194 13.3984 19.4225C13.3984 21.9764 13.4039 22.1131 13.5078 22.3975C13.6555 22.7912 13.9891 23.1577 14.3719 23.3436L14.6836 23.4967L16.7617 23.5131C17.9047 23.5186 18.8945 23.535 18.9602 23.5514C19.0258 23.5678 19.6328 24.0217 20.3055 24.5577C21.7766 25.7225 21.9023 25.7827 22.4 25.542C22.7063 25.3998 22.8156 25.203 22.9688 24.5631C23.2039 23.5733 23.2586 23.5241 24.1937 23.5241C25.025 23.5241 25.3313 23.4147 25.7633 22.9827C26.2609 22.4741 26.25 22.5725 26.25 19.4225C26.25 16.3436 26.2555 16.3983 25.8289 15.9225C25.6922 15.7694 25.4516 15.578 25.2984 15.4959L25.0195 15.3483L19.9062 15.3373C14.8203 15.3264 14.793 15.3264 14.4922 15.4412ZM22.5367 19.0342C22.6625 19.16 22.6953 19.242 22.6953 19.4225C22.6953 19.603 22.6625 19.685 22.5367 19.8108L22.3781 19.9694H19.8844C18.0742 19.9694 17.3578 19.953 17.2539 19.9037C16.9914 19.7834 16.882 19.4225 17.0297 19.1545C17.1828 18.8811 17.1883 18.8811 19.868 18.8756H22.3781L22.5367 19.0342Z" fill="white"/>
</g>
</g>
</svg>
