<svg width="15" height="15" viewBox="0 0 15 15" fill="none" xmlns="http://www.w3.org/2000/svg">
<g id="image 32 (traced)">
<g id="Black">
<path id="Vector" d="M13.5938 2.11222C13.2129 2.17668 13.4238 1.98039 9.24902 6.14933L5.39062 10.0048L3.62402 8.24406C1.98926 6.61222 1.8457 6.47746 1.67578 6.40422C1.13965 6.16984 0.509766 6.35441 0.19043 6.83781C0.0556641 7.03703 0 7.23332 0 7.49992C0 7.75773 0.0556641 7.95402 0.175781 8.14152C0.222656 8.21476 1.25977 9.27531 2.48145 10.4941C4.90723 12.9169 4.79883 12.8232 5.21484 12.8876C5.46094 12.9286 5.68945 12.8905 5.94434 12.7734C6.12598 12.6884 6.38086 12.4394 10.4648 8.35539C14.6221 4.19816 14.7949 4.01945 14.8887 3.82316C14.9795 3.6298 14.9854 3.6005 14.9854 3.29582C14.9854 2.99699 14.9795 2.9589 14.8945 2.78312C14.6631 2.29386 14.1357 2.0214 13.5938 2.11222Z" fill="#f9fafa"/>
</g>
</g>
</svg>
