<svg width="10" height="16" viewBox="0 0 10 16" fill="none" xmlns="http://www.w3.org/2000/svg">
<g id="Right 1">
<path id="Vector" d="M9.60992 11.7733C9.85291 11.5282 9.85114 11.1325 9.60598 10.8895C9.36082 10.6465 8.96509 10.6482 8.72211 10.8934L7.26602 12.3625C6.67507 12.9588 6.26837 13.3678 5.92376 13.6445C5.81177 13.7345 5.71318 13.8047 5.62435 13.8591L5.62435 1.33337C5.62435 0.988196 5.34453 0.708374 4.99935 0.708374C4.65417 0.708374 4.37435 0.988196 4.37435 1.33337L4.37435 13.8591C4.28552 13.8047 4.18693 13.7345 4.07494 13.6445C3.73033 13.3678 3.32363 12.9588 2.73268 12.3625L1.27659 10.8934C1.0336 10.6482 0.63788 10.6465 0.392716 10.8895C0.147551 11.1325 0.145787 11.5282 0.388772 11.7733L1.8711 13.269C2.42939 13.8323 2.88567 14.2927 3.29223 14.6192C3.715 14.9587 4.14412 15.2045 4.65921 15.2701C4.77214 15.2845 4.88574 15.2917 4.99935 15.2917C5.11295 15.2917 5.22656 15.2845 5.33948 15.2701C5.85458 15.2045 6.28369 14.9587 6.70647 14.6192C7.11303 14.2927 7.56932 13.8323 8.12761 13.2689L9.60992 11.7733Z" fill="white"/>
</g>
</svg>
