<svg width="29" height="28" viewBox="0 0 29 28" fill="none" xmlns="http://www.w3.org/2000/svg">
<g id="image 27 (traced)">
<g id="Black">
<path id="Vector" d="M18.5793 1.58047L18.3441 2.29141L18.0324 2.37891C17.5457 2.51016 16.7637 2.83281 16.4355 3.03516L16.1402 3.21562L15.4566 2.87109L14.7676 2.52656L14.1277 3.15547L13.4879 3.78984L13.8379 4.48438L14.1824 5.17344L14.002 5.46875C13.7996 5.79688 13.477 6.57891 13.3457 7.06563L13.2582 7.37734L12.5473 7.6125L11.8418 7.84219V8.75V9.65781L12.5527 9.8875L13.2637 10.1227L13.3184 10.3523C13.4277 10.7953 13.7121 11.5172 13.9418 11.9273L14.177 12.343L13.8324 13.0211L13.4934 13.6992L14.1223 14.3391L14.7566 14.9789L15.4512 14.6289L16.1402 14.2844L16.4355 14.4648C16.7637 14.6672 17.5457 14.9898 18.0324 15.1211L18.3441 15.2086L18.5793 15.9195L18.809 16.625H19.7168H20.6246L20.8543 15.9141L21.0895 15.2031L21.3191 15.1484C21.7621 15.0391 22.484 14.7547 22.8941 14.525L23.3098 14.2898L23.9879 14.6344L24.666 14.9734L25.3059 14.3445L25.9457 13.7102L25.5957 13.0156L25.2512 12.3266L25.4316 12.0312C25.634 11.7031 25.9566 10.9211 26.0879 10.4344L26.1754 10.1227L26.8863 9.8875L27.5918 9.65781V8.75V7.84219L26.8809 7.6125L26.1699 7.37734L26.1152 7.14766C25.9621 6.55703 25.6777 5.8625 25.4152 5.44141L25.2512 5.17344L25.5957 4.48984L25.9402 3.80078L25.3113 3.16094L24.677 2.52109L23.9824 2.87109L23.2934 3.21562L23.0254 3.05156C22.6043 2.78906 21.9098 2.50469 21.3191 2.35156L21.0895 2.29688L20.8543 1.58594L20.6246 0.875H19.7168H18.809L18.5793 1.58047ZM20.5043 4.92734C21.8059 5.17891 22.9543 6.2125 23.4246 7.54141C23.5559 7.91875 23.5723 8.03359 23.5723 8.75C23.5723 9.48281 23.5613 9.57578 23.4191 9.98047C22.8012 11.725 21.1496 12.7914 19.323 12.6219C17.7316 12.4742 16.3863 11.3203 15.9434 9.72891C15.8121 9.23672 15.7957 8.39453 15.916 7.88594C16.4027 5.82422 18.4207 4.52266 20.5043 4.92734Z" fill="white"/>
<path id="Vector_2" d="M8.56055 2.275C6.29648 2.75625 4.56289 4.70859 4.4207 6.92891L4.38789 7.4375H3.72617H3.06445L4.39336 8.76094L5.7168 10.0898L7.04023 8.76094L8.36914 7.4375H7.71836H7.06758L7.10039 6.95625C7.18242 5.80234 7.71289 4.67031 8.58242 3.79531C9.03633 3.34687 9.37539 3.10625 10.2996 2.59766C10.666 2.39531 10.9668 2.22031 10.9668 2.20937C10.9668 2.14922 8.8832 2.20391 8.56055 2.275Z" fill="white"/>
<path id="Vector_3" d="M6.97933 13.6774C4.5348 14.1914 2.6098 16.0344 1.95902 18.4844C1.75121 19.25 1.7184 20.6227 1.88793 21.432C2.42386 24.0516 4.41449 26.0422 7.03402 26.5781C7.8434 26.7477 9.21605 26.7149 9.98168 26.507C12.4481 25.8563 14.2911 23.9149 14.7887 21.4539C14.9309 20.7703 14.9418 19.6547 14.8215 18.9438C14.3512 16.2695 12.1965 14.1149 9.5223 13.6445C8.82777 13.5242 7.63012 13.5406 6.97933 13.6774ZM5.82543 17.5602C6.09887 17.6586 6.15355 17.8555 6.15355 18.8016C6.15355 19.25 6.12621 19.693 6.0934 19.7859C6.04965 19.9117 5.82543 20.1141 5.2184 20.568L4.40355 21.175V21.525V21.875H5.27855H6.15355V22.3125V22.75H5.09261C3.88402 22.75 3.71996 22.7172 3.60511 22.4438C3.51215 22.225 3.50121 21.1531 3.58871 20.9016C3.63246 20.7758 3.85668 20.5734 4.46371 20.1195L5.27855 19.5125V18.9438V18.375H4.84105H4.40355V18.8125V19.25H3.96605H3.52855V18.6266C3.52855 17.8938 3.58871 17.6805 3.82386 17.5766C4.03715 17.4836 5.56293 17.4727 5.82543 17.5602ZM7.46605 18.8125V20.125H7.90355H8.34105V18.8125V17.5H8.77855H9.21605V18.8125V20.125H9.65355H10.0911V20.5625V21H9.65355H9.21605V21.875V22.75H8.77855H8.34105V21.875V21H7.71215C6.95746 21 6.74418 20.9344 6.65121 20.6719C6.61293 20.5516 6.59105 19.9719 6.59105 18.9984V17.5H7.02855H7.46605V18.8125ZM11.4036 18.5938V19.6875H12.027C12.3661 19.6875 12.727 19.7149 12.8254 19.7477C13.1262 19.857 13.1536 20.0047 13.1536 21.4649V22.75H12.7161H12.2786V21.6563V20.5625H11.8411H11.4036V21.6563V22.75H10.9661H10.5286V20.125V17.5H10.9661H11.4036V18.5938Z" fill="white"/>
<path id="Vector_4" d="M21.8758 19.2501L20.5633 20.5626H21.2141H21.8649L21.8321 21.0384C21.75 22.1978 21.2196 23.3298 20.35 24.2048C19.8961 24.6532 19.5571 24.8884 18.6219 25.4079C17.8125 25.8509 17.7852 25.8345 19.2782 25.7962C20.1039 25.7798 20.361 25.7524 20.6946 25.654C22.8274 25.0251 24.375 23.1657 24.5118 21.0657L24.5446 20.5626H25.2063H25.868L24.5555 19.2501C23.8336 18.5282 23.2321 17.9376 23.2157 17.9376C23.1993 17.9376 22.5977 18.5282 21.8758 19.2501Z" fill="white"/>
</g>
</g>
</svg>
