<svg width="29" height="28" viewBox="0 0 29 28" fill="none" xmlns="http://www.w3.org/2000/svg">
<g id="image 24 (traced)" clip-path="url(#clip0_1_11946)">
<g id="Black">
<path id="Vector" d="M11.8199 0.103874C11.4809 0.328094 11.459 0.415594 11.459 1.55856V2.59763L10.7316 2.83278C10.3379 2.95856 9.68164 3.22653 9.27695 3.42341L8.54414 3.78434L7.85508 3.10075C7.47773 2.72341 7.11133 2.38981 7.0457 2.357C6.89258 2.28044 6.50977 2.28044 6.35664 2.357C6.18711 2.4445 2.93867 5.682 2.84023 5.86247C2.74727 6.03747 2.7418 6.41481 2.82383 6.57887C2.85664 6.6445 3.19023 7.01091 3.56758 7.38825L4.25117 8.07731L3.89023 8.81012C3.69336 9.20934 3.42539 9.86559 3.29961 10.2648L3.06445 10.9867L2.02539 10.9922C0.882422 10.9922 0.794922 11.014 0.570703 11.3531C0.472266 11.5007 0.466797 11.6539 0.466797 14C0.466797 16.3461 0.472266 16.4992 0.570703 16.6468C0.794922 16.9859 0.882422 17.0078 2.02539 17.0078L3.06445 17.0133L3.29961 17.7351C3.42539 18.1343 3.69336 18.7906 3.89023 19.1898L4.25117 19.9226L3.56758 20.6117C3.19023 20.989 2.85664 21.3554 2.82383 21.4211C2.74727 21.5742 2.74727 21.957 2.82383 22.1101C2.91133 22.2797 6.14883 25.5281 6.3293 25.6265C6.5043 25.7195 6.79414 25.725 7.01289 25.6484C7.09492 25.6156 7.47773 25.282 7.85508 24.9047L8.54414 24.2156L9.27695 24.5765C9.68164 24.7734 10.3215 25.0359 10.6988 25.1617L11.3934 25.3914L11.4098 26.4086C11.4316 27.3383 11.4426 27.4422 11.552 27.6172C11.798 28.0109 11.7105 28 14.4777 28C16.8129 28 16.966 27.9945 17.1137 27.8961C17.4527 27.6718 17.4746 27.5843 17.4746 26.4414V25.4023L18.202 25.1672C18.5957 25.0414 19.252 24.7734 19.6566 24.5765L20.3895 24.2156L21.0785 24.8992C21.4559 25.2765 21.8223 25.6101 21.8879 25.6429C22.052 25.725 22.4293 25.7195 22.6043 25.6265C22.7848 25.5281 26.0223 22.2797 26.1098 22.1101C26.1863 21.957 26.1863 21.5742 26.1098 21.4211C26.077 21.3554 25.7434 20.989 25.366 20.6117L24.6824 19.9226L25.0434 19.1898C25.2402 18.7851 25.5082 18.1289 25.634 17.7351L25.8691 17.0078H26.9082C28.0512 17.0078 28.1387 16.9859 28.3629 16.6468C28.4613 16.4992 28.4668 16.3461 28.4668 14C28.4668 11.6539 28.4613 11.5007 28.3629 11.3531C28.1387 11.014 28.0512 10.9922 26.9082 10.9922L25.8691 10.9867L25.6285 10.2484C25.4973 9.83825 25.2293 9.182 25.0379 8.79372L24.6824 8.07731L25.366 7.38825C25.7434 7.01091 26.077 6.6445 26.1098 6.57887C26.1918 6.41481 26.1863 6.03747 26.0934 5.86247C25.9949 5.682 22.7465 2.4445 22.577 2.357C22.4238 2.28044 22.041 2.28044 21.8879 2.357C21.8223 2.38981 21.4559 2.72341 21.0785 3.10075L20.3895 3.78434L19.6676 3.42887C19.2684 3.232 18.6176 2.96403 18.2129 2.83278L17.4746 2.59763V1.55856C17.4746 0.415594 17.4527 0.328094 17.1137 0.103874C16.966 0.00543785 16.8129 -3.05176e-05 14.4668 -3.05176e-05C12.1207 -3.05176e-05 11.9676 0.00543785 11.8199 0.103874ZM15.6809 6.48044C17.234 6.71559 18.7598 7.51403 19.9137 8.71169C20.7832 9.60856 21.3246 10.5 21.7074 11.6484C21.9645 12.4304 22.0684 13.1086 22.0684 14C22.0684 14.8914 21.9645 15.5695 21.7074 16.3515C21.3246 17.5 20.7832 18.3914 19.9137 19.2883C17.8848 21.3883 14.8605 22.1484 12.1207 21.2406C10.9723 20.8578 10.0699 20.3109 9.17852 19.4468C8.00273 18.3148 7.21523 16.8328 6.95273 15.2632C6.83789 14.5961 6.83789 13.4039 6.95273 12.7367C7.21523 11.1672 8.00273 9.68512 9.17852 8.55309C9.81289 7.94059 10.3488 7.55231 11.0543 7.19684C12.5254 6.46403 14.0074 6.23434 15.6809 6.48044Z" fill="white"/>
<path id="Vector_2" d="M10.7262 10.0023C10.6441 10.057 10.5238 10.1773 10.4691 10.2594C10.3707 10.4125 10.3652 10.582 10.3652 14C10.3652 17.418 10.3707 17.5875 10.4691 17.7406C10.5238 17.8227 10.6441 17.943 10.7262 17.9977C10.8793 18.0961 11.0488 18.1016 14.4668 18.1016C17.8848 18.1016 18.0543 18.0961 18.2074 17.9977C18.2895 17.943 18.4098 17.8227 18.4645 17.7406C18.5629 17.5875 18.5684 17.418 18.5684 14C18.5684 10.582 18.5629 10.4125 18.4645 10.2594C18.2293 9.90938 18.191 9.89844 16.6762 9.89844H15.298L15.2816 10.8117C15.2598 11.643 15.2488 11.7469 15.1395 11.9219C14.8168 12.4414 14.0949 12.4359 13.7832 11.9109C13.6902 11.7523 13.6738 11.6102 13.6574 10.8117L13.6355 9.89844H12.2574C11.0051 9.89844 10.8738 9.90938 10.7262 10.0023Z" fill="white"/>
</g>
</g>
<defs>
<clipPath id="clip0_1_11946">
<rect width="28" height="28" fill="white" transform="translate(0.466797)"/>
</clipPath>
</defs>
</svg>
