<svg width="28" height="28" viewBox="0 0 28 28" fill="none" xmlns="http://www.w3.org/2000/svg">
<g id="image 25 (traced)">
<g id="Black">
<path id="Vector" d="M12.8804 0.0327511C8.93193 0.623377 5.98974 3.33588 5.13661 7.17494C5.04911 7.55775 5.0163 7.95697 4.99443 8.77728C4.96161 10.0788 5.05458 10.7734 5.41005 11.8617C5.83661 13.1523 5.95693 13.3382 10.1241 19.1406C12.2351 22.0718 13.9796 24.4726 14.0015 24.4726C14.0288 24.4726 15.7733 22.0718 17.8788 19.1406C21.4007 14.246 21.7452 13.7429 22.0952 13.0429C22.5327 12.157 22.8116 11.2874 22.9483 10.3851C23.0686 9.53744 23.0304 7.91322 22.8663 7.17494C22.0788 3.60385 19.4265 0.951502 15.8499 0.158533C15.4452 0.0655651 15.1061 0.0436897 14.1929 0.0272827C13.564 0.016346 12.9733 0.0218143 12.8804 0.0327511ZM14.8218 4.15619V5.02572L15.0569 5.09134C15.6366 5.24447 16.271 5.61635 16.7741 6.08666L17.053 6.34916L17.7749 5.939C18.1741 5.70931 18.5132 5.52338 18.5351 5.52338C18.5733 5.52338 19.3061 6.76478 19.3061 6.83041C19.3061 6.85228 18.978 7.06009 18.5733 7.28978L17.8405 7.71088L17.9444 8.10463C18.0811 8.62416 18.0811 9.41166 17.9444 9.93666L17.8405 10.3304L18.5733 10.757C18.978 10.9867 19.3061 11.1945 19.3061 11.2163C19.3061 11.2874 18.5733 12.5234 18.5296 12.5234C18.5077 12.5234 18.1686 12.3374 17.7749 12.1078L17.0585 11.6921L16.7741 11.9601C16.2765 12.4249 15.839 12.6874 15.1936 12.9062L14.8218 13.032V13.896V14.7656H14.0015H13.1811L13.1702 13.8796C13.1538 13.0374 13.1483 12.9882 13.0444 12.9718C12.5468 12.8898 11.7319 12.4359 11.2397 11.971L10.9499 11.6976L10.228 12.1078C9.8288 12.3374 9.48974 12.5234 9.46786 12.5234C9.42958 12.5234 8.74052 11.3531 8.70771 11.2382C8.70224 11.2054 9.02489 10.9921 9.42958 10.757L10.1624 10.3359L10.0585 9.94213C9.92177 9.41713 9.92177 8.62963 10.0585 8.10463L10.1624 7.71088L9.42958 7.28978C9.02489 7.05463 8.70224 6.84134 8.70771 6.80853C8.74052 6.69369 9.42958 5.52338 9.46786 5.52338C9.48974 5.52338 9.8288 5.70931 10.228 5.939L10.9499 6.34916L11.2288 6.08666C11.7265 5.62181 12.164 5.35931 12.8147 5.14056L13.1811 5.01478V4.15072V3.28119H14.0015H14.8218V4.15619Z" fill="white"/>
<path id="Vector_2" d="M13.1871 6.66637C12.5309 6.91247 12.0551 7.3445 11.7434 7.97887C11.5738 8.32887 11.5684 8.36716 11.5684 9.02341C11.5684 9.67966 11.5738 9.71794 11.7434 10.0679C12.0605 10.7132 12.5418 11.1453 13.2145 11.3804C13.4824 11.4734 13.6355 11.4898 14.1113 11.4734C14.6309 11.457 14.7238 11.4351 15.0684 11.2656C15.5715 11.025 16.0035 10.5929 16.2496 10.0898C16.4301 9.71794 16.4355 9.69059 16.4355 9.02341C16.4355 8.35622 16.4301 8.32887 16.2496 7.957C16.0035 7.45387 15.5715 7.02184 15.0684 6.78122C14.7129 6.60622 14.6363 6.58981 14.084 6.57887C13.5918 6.56247 13.4277 6.57887 13.1871 6.66637ZM14.5762 8.47653L15.123 9.02341L14.5598 9.58669L14.002 10.1445L13.4441 9.58669L12.8809 9.02341L13.4277 8.47653C13.7285 8.17575 13.9855 7.92966 14.002 7.92966C14.0184 7.92966 14.2754 8.17575 14.5762 8.47653Z" fill="white"/>
<path id="Vector_3" d="M8.74049 20.9617C7.81627 21.4921 7.19284 22.0992 6.85377 22.7882C6.66784 23.1765 6.64596 23.264 6.62955 23.7726C6.60768 24.232 6.62409 24.3851 6.72799 24.6859C7.23659 26.2117 9.14518 27.3929 11.896 27.8742C12.6999 28.0163 15.2647 28.0109 16.1014 27.8742C18.3546 27.4913 20.1811 26.5453 20.9522 25.3585C21.2913 24.8335 21.4006 24.4234 21.3733 23.7726C21.3569 23.264 21.335 23.1765 21.1436 22.7882C20.8866 22.2523 20.3342 21.6562 19.7217 21.2515C19.1803 20.896 18.8249 20.7101 18.7374 20.7429C18.6991 20.7593 17.6272 22.2085 16.3475 23.9749C15.0733 25.7359 14.0178 27.1742 14.0014 27.1742C13.985 27.1742 12.9241 25.7304 11.6444 23.964C10.3647 22.1976 9.2819 20.7484 9.23815 20.7374C9.1944 20.732 8.97018 20.8304 8.74049 20.9617Z" fill="white"/>
</g>
</g>
</svg>
