<svg width="60" height="60" viewBox="0 0 60 60" fill="none" xmlns="http://www.w3.org/2000/svg">
<path d="M22.0698 5.77313C21.8839 5.84969 21.6323 6.0575 21.523 6.23249C21.3151 6.53874 21.3042 6.76842 21.3042 11.4167C21.3042 16.7213 21.2933 16.601 21.9386 16.9947C22.5729 17.3775 23.4151 17.2135 23.8088 16.6229C23.962 16.3713 23.9838 15.8135 23.9838 11.4714C23.9838 6.04656 23.9838 6.07937 23.2729 5.77313C22.8135 5.5872 22.4964 5.5872 22.0698 5.77313Z" fill="#2276F6"/>
<path d="M36.7256 5.7731C36.0038 6.09028 36.0147 5.95903 36.0147 11.4386C36.0147 16.8744 35.9929 16.6994 36.671 17.0494C37.3053 17.3775 38.2131 17.1369 38.5522 16.5353C38.6615 16.3385 38.6943 15.2338 38.6943 11.4167C38.6943 6.76839 38.6834 6.5387 38.4756 6.23246C38.1037 5.6856 37.3709 5.48873 36.7256 5.7731Z" fill="#2276F6"/>
<path d="M29.6493 7.66524C29.2446 7.73086 28.7305 8.25585 28.6431 8.69334C28.5227 9.32769 28.5774 13.9541 28.7196 14.3588C29.0805 15.376 30.5789 15.5182 31.1258 14.5994C31.2899 14.326 31.3117 13.9213 31.3117 11.3839V8.48553L31.0383 8.14647C30.6883 7.7418 30.2289 7.57774 29.6493 7.66524Z" fill="#2276F6"/>
<path d="M26.1166 17.1039C25.9963 17.1477 25.7776 17.3227 25.6245 17.4867L25.351 17.782L25.3182 21.8179L25.2854 25.8537H24.0495C22.6714 25.8537 22.398 25.9631 22.1245 26.6193C21.8074 27.3849 21.873 27.4943 25.526 32.3941C27.4182 34.9316 29.1025 37.0753 29.2775 37.1737C29.6603 37.4143 30.3712 37.4034 30.7321 37.1737C30.9728 37.0097 37.5679 28.2817 37.8632 27.724C38.1585 27.188 37.8741 26.3131 37.3054 26.0068C37.1413 25.9084 36.6273 25.8646 35.8836 25.8537H34.7023L34.6914 22.0475C34.6914 17.8586 34.6586 17.6508 34.0571 17.2461C33.6852 16.9945 33.6633 16.9945 30.0103 17.0055C27.9869 17.0055 26.2369 17.0492 26.1166 17.1039Z" fill="#2276F6"/>
<path d="M9.34987 19.2478C8.81395 19.6196 8.78113 19.8384 8.78113 22.9555V25.8538H7.91709C7.14055 25.8538 7.0093 25.8867 6.714 26.1382C6.51713 26.3023 6.3312 26.5976 6.25464 26.8601C6.1562 27.2538 6.16714 27.3632 6.39682 27.7788C6.83431 28.61 11.6357 34.9427 11.9967 35.1614C12.4123 35.4239 13.156 35.3911 13.506 35.0849C13.856 34.7677 18.9528 27.9428 19.0731 27.6147C19.259 27.1444 19.1059 26.5976 18.6793 26.2038C18.3184 25.8648 18.2637 25.8538 17.4215 25.8538H16.5466V22.8352V19.8165L16.1747 19.4446L15.8028 19.0728H12.6967C10.0608 19.0728 9.55768 19.0946 9.34987 19.2478Z" fill="#2276F6"/>
<path d="M43.824 19.4445L43.4521 19.8164V22.8351V25.8538H42.5771C41.735 25.8538 41.6803 25.8647 41.3084 26.2147C40.8272 26.6522 40.7178 27.2537 41.0131 27.7896C41.1225 27.9865 42.3693 29.6927 43.7802 31.5958C46.3942 35.0957 46.6567 35.3691 47.3239 35.3691C47.9473 35.3691 48.1989 35.0957 50.966 31.3989L53.7331 27.7131V27.1553C53.7331 26.6631 53.6893 26.5537 53.3612 26.2256C53.0003 25.8647 52.9675 25.8538 52.1034 25.8538H51.2175V22.9554C51.2175 20.593 51.1847 19.9914 51.0535 19.7289C50.7144 19.0727 50.6925 19.0727 47.302 19.0727H44.1958L43.824 19.4445Z" fill="#2276F6"/>
<path d="M2.90779 35.1723C2.36093 35.3145 2 35.8286 2 36.4629C2 37.316 2.25156 37.5238 4.264 38.3223C10.8154 40.9034 17.4652 42.4893 24.5854 43.1565C26.9041 43.3752 33.5976 43.3424 36.0148 43.1018C42.938 42.4018 49.1832 40.8925 55.7346 38.3223C57.747 37.5348 57.9986 37.327 57.9986 36.441C57.9986 35.9598 57.9548 35.8504 57.6267 35.5223C57.2767 35.1723 57.0033 35.0848 56.4127 35.1505C56.2924 35.1614 55.5049 35.4458 54.6627 35.7739C48.7238 38.1363 42.3146 39.6894 35.796 40.3675C33.5211 40.5972 26.9478 40.63 24.8041 40.4222C17.8043 39.7332 12.1169 38.3879 5.77334 35.9379C3.61871 35.1176 3.37809 35.052 2.90779 35.1723Z" fill="#2276F6"/>
<path d="M2.71092 41.997C2.18593 42.2595 2 42.5767 2 43.2001C2 43.8235 2.26249 44.272 2.74373 44.4579C3.21403 44.6329 7.053 45.5188 9.60137 46.0329C14.2388 46.9735 18.5371 47.6188 22.8901 48.0234C25.8431 48.2969 34.0132 48.2969 36.9991 48.0234C42.8286 47.4875 48.3848 46.5579 54.7065 45.0923C55.9971 44.786 57.1892 44.4688 57.3533 44.3923C57.8017 44.1626 57.9986 43.8017 57.9986 43.2658C57.9986 42.6533 57.7361 42.2048 57.2439 41.9752C56.7955 41.7674 56.872 41.7455 53.3503 42.5767C47.9801 43.8345 42.3365 44.7642 37.0538 45.2782C34.5382 45.5188 28.0962 45.6063 25.3838 45.4423C19.2261 45.0704 13.1122 44.097 5.45616 42.3033C4.32963 42.0408 3.31247 41.822 3.21403 41.822C3.1156 41.822 2.89685 41.8986 2.71092 41.997Z" fill="#2276F6"/>
<path d="M2.57967 47.2798C2.14218 47.5533 2 47.8158 2 48.3845C2 48.9095 2.24062 49.4235 2.56874 49.5985C3.08278 49.872 7.75298 50.8782 11.406 51.4907C17.6184 52.5406 23.262 53 29.9993 53C36.6054 53 42.1287 52.5625 48.2644 51.5453C51.9831 50.9329 56.6205 49.9485 57.3205 49.6204C58.2173 49.2048 58.2283 47.6954 57.3423 47.2361C56.883 46.9955 56.5658 47.0283 54.8049 47.4439C49.1722 48.7892 42.4458 49.7626 36.2882 50.1235C26.1713 50.7251 15.6059 49.8391 5.9374 47.6079C3.48746 47.0392 3.03904 46.9955 2.57967 47.2798Z" fill="#2276F6"/>
</svg>
