<svg width="60" height="60" viewBox="0 0 60 60" fill="none" xmlns="http://www.w3.org/2000/svg">
<path d="M44.625 4.2421C40.6406 7.01944 40.6875 6.92569 42.8555 7.62882L44.0391 8.01554L43.6523 9.07022C42.8438 11.3202 41.8945 13.2304 40.4531 15.5858C36.7734 21.5741 32.0273 25.828 26.4258 28.1483C25.4531 28.5468 25.3711 28.6054 25.3711 28.9101C25.3711 29.2265 25.3828 29.2382 25.9688 29.2265C27.1992 29.1913 29.8008 28.5468 31.6875 27.8085C38.3086 25.2187 43.9805 19.9921 47.1562 13.5937C47.6133 12.6562 48.1641 11.3788 48.3867 10.7577L48.7734 9.63272L49.9805 10.0429C51.2461 10.4765 51.5625 10.4882 51.5625 10.078C51.5625 9.74991 48.7617 2.46085 48.5391 2.19132C48.4453 2.08585 48.2461 1.9921 48.1172 1.9921C47.9766 1.9921 46.4062 3.01163 44.625 4.2421Z" fill="#2276F6"/>
<path d="M14.168 3.59766C13.6055 5.14453 13.6875 5.03906 12.7734 5.32031C12.4102 5.4375 11.8594 5.67188 11.543 5.84766L10.957 6.16406L10.0312 5.77734L9.09375 5.37891L8.0625 6.41016C7.5 6.97266 7.03125 7.5 7.03125 7.59375C7.03125 7.67578 7.19531 8.08594 7.38281 8.51953L7.74609 9.30469L7.33594 10.1367C7.11328 10.5938 6.86719 11.2148 6.79688 11.5078C6.65625 12.0469 6.65625 12.0469 5.76562 12.3867L4.86328 12.7266V14.2852V15.8555L5.75391 16.1953L6.63281 16.5469L6.83203 17.1914C6.94922 17.543 7.19531 18.1523 7.38281 18.5391L7.73438 19.2422L7.38281 20.0625C7.18359 20.5078 7.03125 20.9414 7.03125 21.0234C7.03125 21.0938 7.5 21.6211 8.0625 22.1836L9.10547 23.2148L10.0078 22.8164L10.9219 22.4062L11.4141 22.6875C11.6719 22.8398 12.293 23.0977 12.7734 23.2617L13.6523 23.5547L13.9805 24.4336L14.3086 25.3125H15.8672H17.4258L17.7656 24.4219L18.1055 23.5312L18.7617 23.3203C19.125 23.2148 19.7344 22.9688 20.1211 22.7695L20.8242 22.418L21.6914 22.8047L22.5586 23.1914L23.6602 22.0898L24.7617 21L24.3867 20.1328L24.0117 19.2773L24.4102 18.3984C24.6328 17.918 24.8789 17.2969 24.9492 17.0273C25.0781 16.5586 25.1133 16.5352 25.9922 16.1953L26.8945 15.8555V14.2969V12.7383L25.9922 12.3984C25.1133 12.0586 25.0781 12.0352 24.9609 11.5664C24.8906 11.2969 24.6445 10.6758 24.4219 10.1836L24 9.29297L24.3633 8.49609C24.5625 8.0625 24.7266 7.64062 24.7266 7.57031C24.7266 7.5 24.2578 6.97266 23.6836 6.39844L22.6289 5.35547L21.7031 5.76562L20.7773 6.1875L20.4375 5.96484C20.25 5.84766 19.6406 5.57812 19.0781 5.37891L18.0703 5.01562L17.7539 4.14844L17.4375 3.28125H15.8672H14.2969L14.168 3.59766ZM16.7695 9.25781C18.3398 9.55078 19.7695 10.6641 20.4727 12.1523C21.9141 15.1641 20.0273 18.7383 16.6641 19.3359C14.5078 19.7227 12.2461 18.5156 11.2266 16.4414C10.8516 15.6797 10.8398 15.5859 10.8398 14.2969C10.8398 12.9961 10.8516 12.9141 11.2383 12.1289C11.9297 10.7344 13.1367 9.73828 14.6836 9.31641C15.4336 9.11719 15.9492 9.10547 16.7695 9.25781Z" fill="#2276F6"/>
<path d="M43.4883 28.6172C43.3711 28.8984 43.207 29.3086 43.125 29.543C42.9961 29.9062 42.8906 29.9883 42.3516 30.1523C42 30.2578 41.3906 30.5156 40.9805 30.7031L40.2422 31.0664L39.4453 30.7148C39.0117 30.5156 38.5898 30.3516 38.5078 30.3516C38.4375 30.3516 37.9102 30.8203 37.3359 31.3945L36.293 32.4375L36.6797 33.3281L37.0664 34.207L36.6445 35.1211C36.4219 35.625 36.1758 36.2461 36.1055 36.5039C35.9883 36.9609 35.9531 36.9844 35.0391 37.3242L34.1016 37.6641V39.1992V40.7344L35.0391 41.0742C35.9531 41.4023 35.9883 41.4375 36.1055 41.8945C36.1758 42.1523 36.4219 42.7734 36.6562 43.2773L37.0664 44.1914L36.6797 45.0703L36.293 45.9609L37.3359 47.0039C37.9102 47.5781 38.4375 48.0469 38.5078 48.0469C38.5781 48.0469 39 47.8828 39.4336 47.6836L40.2305 47.3203L41.1211 47.7305C41.6133 47.9648 42.2344 48.2109 42.4922 48.293C42.9609 48.4219 42.9961 48.4688 43.3125 49.3242L43.6523 50.2148L45.1992 50.25L46.7344 50.2852L47.0859 49.3711L47.4375 48.4688L48.1875 48.2109C48.5859 48.082 49.207 47.8242 49.5586 47.6484L50.1914 47.3203L51.0586 47.707L51.9258 48.082L53.0273 46.9922L54.1172 45.9023L53.7188 45.0352L53.3203 44.1562L53.6367 43.5586C53.8008 43.2188 54.0586 42.6094 54.1992 42.1992L54.457 41.4492L55.3477 41.0977L56.25 40.7461V39.1992V37.6523L55.3594 37.3008L54.457 36.9492L54.2578 36.3164C54.1523 35.9648 53.8945 35.3555 53.6953 34.957L53.332 34.2305L53.7422 33.3164L54.1641 32.4023L53.0859 31.3828C52.5 30.8086 51.9609 30.3516 51.9023 30.3516C51.8438 30.3516 51.4336 30.5156 50.9883 30.7148L50.1914 31.0781L49.5 30.7266C49.1133 30.5391 48.5039 30.2812 48.1406 30.1641L47.4609 29.9531L47.1211 29.0742L46.7812 28.1836L45.2461 28.1484L43.7109 28.1133L43.4883 28.6172ZM47.3438 34.582C50.6367 36.1641 51.3398 40.3477 48.7383 42.832C46.8984 44.5898 44.2266 44.7891 42.2344 43.3242C38.8945 40.8633 39.6094 35.8594 43.5117 34.3711C44.1211 34.1484 44.4141 34.1016 45.3516 34.1367C46.3594 34.1602 46.5586 34.207 47.3438 34.582Z" fill="#2276F6"/>
<path d="M15.1875 31.4531C15.0938 31.6758 14.9062 32.1797 14.7656 32.5547L14.5078 33.2461L13.793 33.4453C13.3945 33.5625 12.6328 33.8555 12.1055 34.1133L11.1445 34.5938L10.0547 34.1016L8.97656 33.6211L7.66406 34.9453L6.35156 36.2695L6.83203 37.3477L7.30078 38.4375L6.82031 39.457C6.5625 40.0312 6.25781 40.7812 6.14062 41.1445L5.95312 41.7891L4.875 42.1992L3.80859 42.6094L3.77344 44.4961L3.75 46.3828L4.83984 46.8047L5.92969 47.2266L6.14062 47.9062C6.25781 48.2695 6.5625 49.0312 6.83203 49.6055L7.30078 50.625L6.83203 51.668L6.35156 52.7109L7.6875 54.0352L9.01172 55.3594L10.1016 54.8906L11.2031 54.4219L11.8945 54.7969C12.2812 55.0078 13.0195 55.3242 13.5469 55.5L14.5078 55.8047L14.918 56.8828L15.3281 57.9492H17.2266H19.125L19.5352 56.8711L19.9453 55.793L20.7539 55.5469C21.1992 55.418 21.9492 55.1016 22.418 54.8672L23.2852 54.4219L24.3633 54.8906L25.4414 55.3594L26.7188 54.082C27.4336 53.3672 28.0078 52.7344 28.0078 52.6641C28.0078 52.582 27.8203 52.0898 27.5859 51.5742L27.1523 50.625L27.6328 49.5938C27.8906 49.0312 28.1953 48.2812 28.3008 47.9062L28.4883 47.25L29.6016 46.8164L30.7031 46.3828L30.6797 44.4961L30.6445 42.6094L29.5781 42.1992L28.5 41.7891L28.3125 41.1445C28.1953 40.7812 27.8906 40.0312 27.6328 39.457L27.1523 38.4375L27.5742 37.4531C27.8086 36.9023 28.0078 36.3867 28.0078 36.3047C28.0078 36.2227 27.4336 35.5781 26.7422 34.8867L25.4766 33.6211L24.3867 34.1016L23.3086 34.5938L22.3477 34.1133C21.8203 33.8555 21.0586 33.5625 20.6719 33.4453L19.9453 33.2461L19.5469 32.1797L19.1367 31.1133L17.25 31.0781L15.3516 31.0547L15.1875 31.4531ZM18.457 38.3789C20.1094 38.7305 21.5977 39.75 22.5234 41.1797C24.082 43.582 23.6953 46.8516 21.6211 48.9258C20.4023 50.1445 18.9492 50.7422 17.2266 50.7422C15.5039 50.7422 14.0508 50.1445 12.832 48.9258C10.7461 46.8398 10.3828 43.582 11.9531 41.1328C12.7969 39.8086 14.3789 38.7188 15.9375 38.3906C16.9336 38.168 17.4609 38.168 18.457 38.3789Z" fill="#2276F6"/>
</svg>
