<svg width="60" height="60" viewBox="0 0 60 60" fill="none" xmlns="http://www.w3.org/2000/svg">
<path d="M14.5215 5.02984C11.5332 5.49859 8.76953 7.20757 7.01172 9.67828C6.38672 10.5572 5.64453 12.149 5.32227 13.3111C5.06836 14.2291 5.04883 14.4048 5.04883 16.1919C5.04883 17.9791 5.06836 18.1548 5.32227 19.0728C6.02539 21.6119 7.50977 23.7701 9.63867 25.3521C10.459 25.9576 12.1875 26.7779 13.3496 27.1002C14.2676 27.3541 14.4434 27.3736 16.2305 27.3638C17.9785 27.3638 18.2129 27.3443 19.0918 27.1099C20.2051 26.8072 21.6113 26.1627 22.6074 25.4986C23.457 24.9322 24.8145 23.6041 25.4395 22.7252C26.0742 21.8267 26.8164 20.2349 27.1387 19.0728C27.3926 18.1548 27.4121 17.9791 27.4121 16.1919C27.4121 14.4048 27.3926 14.2291 27.1387 13.3111C26.0449 9.37554 23.0566 6.36773 19.1602 5.29351C18.3594 5.0689 18.0078 5.03961 16.5234 5.01031C15.5859 4.99078 14.6875 5.00054 14.5215 5.02984ZM16.9336 11.0845C17.0898 11.1822 17.3145 11.4166 17.4316 11.6021C17.6367 11.9244 17.6465 12.0513 17.6465 14.2388C17.6465 16.8169 17.6172 16.9634 16.9141 17.3931C16.5918 17.5982 16.4648 17.608 14.2773 17.608C12.0898 17.608 11.9629 17.5982 11.6406 17.3931C11.4551 17.2759 11.2207 17.0513 11.1328 16.8951C10.8984 16.5044 10.9082 15.8306 11.1523 15.44C11.4844 14.8931 11.8164 14.7857 13.3594 14.7466L14.7461 14.7076L14.7852 13.3209C14.8242 11.7779 14.9219 11.4752 15.4688 11.1236C15.8691 10.8697 16.5332 10.8599 16.9336 11.0845Z" fill="#2276F6"/>
<path d="M43.8281 24.6782C43.6816 24.7759 43.4668 24.9907 43.3691 25.1372C43.1934 25.4106 43.1836 25.8599 43.1836 38.7212V52.0317H41.7188H40.2539V42.6274C40.2539 33.5845 40.2441 33.2231 40.0684 32.9497C39.9707 32.8032 39.7559 32.5884 39.6094 32.4907C39.3457 32.3149 39.0918 32.3052 35.8594 32.3052C32.627 32.3052 32.373 32.3149 32.1094 32.4907C31.9629 32.5884 31.748 32.8032 31.6504 32.9497C31.4746 33.2231 31.4648 33.5845 31.4648 42.6274V52.0317H30H28.5352V45.5571C28.5352 39.3853 28.5254 39.0825 28.3496 38.8091C28.252 38.6626 28.0371 38.4478 27.8906 38.3501C27.627 38.1743 27.373 38.1646 24.1406 38.1646C20.9082 38.1646 20.6543 38.1743 20.3906 38.3501C20.2441 38.4478 20.0293 38.6626 19.9316 38.8091C19.7559 39.0825 19.7461 39.3853 19.7461 45.5571V52.0317H18.2812H16.8164V47.5103C16.8164 43.2524 16.8066 42.979 16.6309 42.7153C16.5332 42.5688 16.3184 42.354 16.1719 42.2563C15.9082 42.0806 15.6543 42.0708 12.4219 42.0708C9.18945 42.0708 8.93555 42.0806 8.67188 42.2563C8.52539 42.354 8.31055 42.5688 8.21289 42.7153C8.03711 42.979 8.02734 43.2524 8.02734 47.5103V52.0317H6.98242C6.11328 52.0317 5.87891 52.061 5.64453 52.2173C5.19531 52.52 5 52.8911 5 53.4966C5 54.1021 5.19531 54.4731 5.64453 54.7759C5.91797 54.9517 6.58203 54.9614 30 54.9614C53.418 54.9614 54.082 54.9517 54.3555 54.7759C54.8047 54.4731 55 54.1021 55 53.4966C55 52.8911 54.8047 52.52 54.3555 52.2173C54.1211 52.061 53.8867 52.0317 53.0273 52.0317H51.9727V38.7212C51.9727 25.8599 51.9629 25.4106 51.7871 25.1372C51.6895 24.9907 51.4746 24.7759 51.3281 24.6782C51.0645 24.5024 50.8105 24.4927 47.5781 24.4927C44.3457 24.4927 44.0918 24.5024 43.8281 24.6782Z" fill="#2276F6"/>
<path d="M34.8719 18.1519C31.0657 19.5282 31.1236 19.4628 32.7171 20.4964L33.5864 21.0629L33.0476 21.8285C31.9114 23.4652 30.7354 24.798 29.0671 26.3831C24.8136 30.4097 20.0758 32.8102 15.0665 33.4697C14.1976 33.5807 14.1189 33.6101 14.0532 33.8554C13.985 34.1101 13.9919 34.122 14.466 34.239C15.4641 34.4761 17.6972 34.5184 19.3751 34.331C25.2633 33.6744 30.9561 30.6907 34.8924 26.2253C35.4625 25.5692 36.1813 24.6599 36.4945 24.2079L37.0484 23.3858L37.9316 23.9763C38.8568 24.5983 39.109 24.6759 39.1974 24.3458C39.2682 24.0817 38.5859 17.6103 38.4648 17.3454C38.4121 17.2403 38.2719 17.1218 38.1682 17.094C38.055 17.0637 36.5711 17.5457 34.8719 18.1519Z" fill="#2276F6"/>
</svg>
