<svg width="25" height="25" viewBox="0 0 25 25" fill="none" xmlns="http://www.w3.org/2000/svg">
<g clip-path="url(#clip0_91_2032)">
<g clip-path="url(#clip1_91_2032)">
<path d="M5.0293 0.102539C3.16406 0.493164 1.62109 1.63574 0.737305 3.28125C0.400391 3.90137 0.180664 4.5459 0.0488281 5.29297C0.0195312 5.4834 0 7.9834 0 12.5146C0 19.3213 0 19.4531 0.102539 19.9365C0.371094 21.2646 1.00098 22.4121 1.95312 23.3057C2.83203 24.1309 3.84766 24.6533 5.06348 24.8975C5.54688 25 5.67871 25 12.5 25C19.3213 25 19.4531 25 19.9365 24.8975C21.2646 24.6289 22.4121 23.999 23.3057 23.0469C24.1309 22.168 24.6533 21.1523 24.8975 19.9365C25 19.4531 25 19.3213 25 12.5146C25 7.9834 24.9805 5.4834 24.9512 5.29297C24.5996 3.2666 23.4082 1.61133 21.6357 0.693359C21.0693 0.400391 20.6006 0.234375 19.9365 0.102539C19.4531 0 19.3311 0 12.4658 0.00488281C5.69824 0.00488281 5.47852 0.00976562 5.0293 0.102539ZM19.8096 4.30664C20.1904 4.44824 20.5518 4.80957 20.6982 5.2002C21.0742 6.19141 20.3271 7.25098 19.2578 7.24609C17.793 7.23633 17.1924 5.35156 18.3838 4.49707C18.8232 4.17969 19.3066 4.11621 19.8096 4.30664ZM13.6963 7.46582C14.6826 7.70996 15.3906 8.11523 16.1377 8.8623C17.124 9.84863 17.5928 10.9082 17.6611 12.2803C17.7295 13.7402 17.2168 15.0635 16.167 16.1279C15.1318 17.1826 13.75 17.7295 12.2803 17.6611C10.9082 17.5928 9.84863 17.124 8.8623 16.1377C8.11035 15.3857 7.71484 14.6875 7.45605 13.6719C7.30469 13.0762 7.30469 11.9238 7.45605 11.3281C7.69531 10.3906 8.10547 9.63867 8.75977 8.9502C9.5459 8.125 10.4883 7.60742 11.6016 7.39746C12.1289 7.2998 13.1689 7.33398 13.6963 7.46582Z" fill="url(#paint0_linear_91_2032)"/>
</g>
</g>
<defs>
<linearGradient id="paint0_linear_91_2032" x1="12.5" y1="25" x2="12.5" y2="0.00329018" gradientUnits="userSpaceOnUse">
<stop stop-color="#AC6CBC"/>
<stop offset="1" stop-color="#B489D6"/>
</linearGradient>
<clipPath id="clip0_91_2032">
<rect width="25" height="25" fill="white"/>
</clipPath>
<clipPath id="clip1_91_2032">
<rect width="25" height="25" fill="white"/>
</clipPath>
</defs>
</svg>
