<svg width="25" height="25" viewBox="0 0 25 25" fill="none" xmlns="http://www.w3.org/2000/svg">
<g id="image 39 (traced)">
<g id="Black">
<path id="Vector" d="M5.23535 1.63575C4.64941 1.76271 4.01953 2.15333 3.66797 2.60743C3.45312 2.88087 2.69629 4.26759 2.41797 4.88283C1.82227 6.21095 1.55859 7.47072 1.55859 8.98439C1.55859 10.4688 1.82715 11.7578 2.4082 13.0615C3.19922 14.8389 5.35742 17.6904 6.99805 19.1309C8.89258 20.791 10.9385 22.1533 12.4131 22.7246C14.6201 23.5889 17.0469 23.6475 19.3369 22.8906C20.0449 22.6563 21.9004 21.7481 22.3545 21.416C22.8428 21.0547 23.209 20.5176 23.3652 19.917C23.4043 19.7705 23.4385 19.4385 23.4385 19.1797C23.4385 18.5547 23.292 18.0713 22.9551 17.5977C22.8184 17.4072 22.0713 16.626 21.2363 15.791C19.9473 14.5166 19.708 14.3018 19.4053 14.1455C18.3457 13.5986 17.0811 13.75 16.2217 14.5313C15.8457 14.8682 15.7139 15.083 15.2549 16.0791C14.7617 17.1484 14.7275 17.168 13.9316 16.8897C13.6973 16.8067 13.2139 16.6016 12.8623 16.4307C11.1973 15.6152 9.94238 14.4824 8.97559 12.9248C8.50195 12.168 7.95996 10.9082 7.95996 10.5762C7.95996 10.3027 8.09668 10.1953 8.94629 9.81447C9.9082 9.38478 10.1475 9.23341 10.499 8.85743C10.9971 8.32032 11.2314 7.71486 11.2314 6.97267C11.2314 6.47462 11.1387 6.10353 10.9043 5.64454C10.748 5.33693 10.5381 5.10744 9.1123 3.68165C7.6084 2.17775 7.47168 2.05079 7.12988 1.88478C6.50488 1.58204 5.87012 1.49903 5.23535 1.63575Z" fill="#E6EAEB"/>
</g>
</g>
</svg>
