<svg width="19" height="20" viewBox="0 0 19 20" fill="none" xmlns="http://www.w3.org/2000/svg">
<g id="Play">
<path id="Vector" d="M12.0733 3.20656C10.3412 2.21897 8.9958 1.45185 7.90313 0.954193C6.80638 0.454673 5.85435 0.172581 4.92862 0.26867C3.45941 0.421172 2.1219 1.18244 1.25027 2.36722C0.699716 3.11558 0.470482 4.07609 0.360016 5.26523C0.249991 6.44961 0.249995 7.98466 0.25 9.95885V10.0411C0.249995 12.0153 0.249991 13.5504 0.360015 14.7348C0.470482 15.9239 0.699715 16.8844 1.25027 17.6328C2.1219 18.8176 3.45941 19.5788 4.92862 19.7313C5.85435 19.8274 6.80638 19.5453 7.90313 19.0458C8.99579 18.5481 10.3412 17.781 12.0732 16.7934L12.1435 16.7534C13.8755 15.7659 15.2209 14.9987 16.2038 14.3129C17.1894 13.6252 17.916 12.9503 18.297 12.1052C18.901 10.7654 18.901 9.23462 18.297 7.89474C17.916 7.04971 17.1894 6.37478 16.2038 5.68705C15.2209 5.00127 13.8755 4.23413 12.1435 3.24662L12.0733 3.20656Z" fill="#F9FAFA"/>
</g>
</svg>
