<svg width="24" height="24" viewBox="0 0 24 24" fill="none" xmlns="http://www.w3.org/2000/svg">
<path d="M7.83541 0.0697098C5.8226 0.374449 4.05846 1.25116 2.67436 2.6389C1.35595 3.96101 0.53018 5.48471 0.131372 7.34128C0.00938372 7.90857 0 8.00702 0 9.16035C0 10.3137 0.00938372 10.4121 0.131372 10.9794C0.919605 14.6644 3.65027 17.393 7.31461 18.1666C8.09346 18.3307 9.58547 18.3776 10.3925 18.2604C11.8141 18.0541 13.095 17.5712 14.2304 16.8117L14.7465 16.4647L18.4015 20.1169C22.4834 24.2005 22.277 24.0223 22.8869 23.9895C23.5531 23.9567 23.9566 23.5535 23.9895 22.8877C24.0223 22.2783 24.2006 22.4845 20.114 18.4057L16.4637 14.7582L16.8016 14.2425C18.8472 11.1482 18.8378 7.10687 16.7781 4.0454C15.272 1.80439 12.9495 0.379137 10.2517 0.0415783C9.70746 -0.0240574 8.34682 -0.0099926 7.83541 0.0697098ZM10.5801 2.51701C11.983 2.84988 13.1278 3.50155 14.0756 4.50485C14.953 5.42845 15.5441 6.5724 15.821 7.87106C15.9382 8.43366 15.9382 9.88235 15.821 10.4496C15.5254 11.8327 14.9154 12.9673 13.9348 13.9424C13.1325 14.7488 12.3208 15.2505 11.2417 15.6068C10.4159 15.8787 9.89044 15.9537 8.92392 15.9209C7.83071 15.8881 7.2067 15.7381 6.26363 15.2974C5.47071 14.9223 4.82323 14.4535 4.21329 13.8065C3.34999 12.8969 2.75412 11.7389 2.4773 10.4496C2.35531 9.88704 2.35531 8.43366 2.4773 7.87575C2.78227 6.47395 3.38283 5.35344 4.36343 4.37827C5.41441 3.32809 6.71405 2.66235 8.1826 2.43262C8.65179 2.35761 10.1297 2.41387 10.5801 2.51701Z" fill="#090911" fill-opacity="0.3"/>
</svg>
