<svg width="25" height="25" viewBox="0 0 25 25" fill="none" xmlns="http://www.w3.org/2000/svg">
<path d="M5.49306 3.71582C4.28212 3.76953 3.44228 3.8916 2.66103 4.13574C1.43056 4.52148 0.644426 5.27832 0.297746 6.41602C0.0340743 7.27539 0.0291915 7.33887 0.00966025 11.6699C-0.009871 15.874 0.00966026 16.4648 0.20009 17.3975C0.414934 18.457 0.761613 19.165 1.36708 19.7803C2.34364 20.7715 3.59364 21.1768 6.00575 21.2939C6.72841 21.3281 9.27724 21.3379 13.4276 21.3232C20.1024 21.2988 20.205 21.2988 21.289 21.0693C23.2177 20.6641 24.2479 19.6924 24.702 17.8467C24.9706 16.7676 24.9755 16.6406 24.9755 12.1094C24.9755 8.94531 24.9608 7.83203 24.912 7.50488C24.6288 5.57129 23.9208 4.64355 22.3388 4.13574C21.5673 3.88672 20.7714 3.77441 19.3505 3.71094C18.164 3.65723 6.71376 3.66211 5.49306 3.71582ZM11.1718 9.1748C12.8173 10 16.0985 11.7334 16.2011 11.8311C16.5429 12.1436 16.5331 12.6172 16.1767 12.9443C16.0155 13.0957 10.8544 15.8008 10.5956 15.8691C10.2684 15.957 9.89736 15.7812 9.74599 15.459C9.67763 15.3125 9.66786 14.9658 9.66786 12.3633V9.43848L9.78017 9.27246C9.83876 9.18457 9.96572 9.05762 10.0536 8.99902C10.3222 8.81836 10.5224 8.84766 11.1718 9.1748Z" fill="url(#paint0_linear_91_2038)"/>
<defs>
<linearGradient id="paint0_linear_91_2038" x1="12.4896" y1="21.3298" x2="12.4896" y2="3.67301" gradientUnits="userSpaceOnUse">
<stop stop-color="#D24D4D"/>
<stop offset="1" stop-color="#ED6565"/>
</linearGradient>
</defs>
</svg>
